<?xml version="1.0" encoding="utf-8"?>
<!-- Generator: Adobe Illustrator 27.5.0, SVG Export Plug-In . SVG Version: 6.00 Build 0)  -->
<svg version="1.1" id="Capa_1" xmlns="http://www.w3.org/2000/svg" xmlns:xlink="http://www.w3.org/1999/xlink" x="0px" y="0px"
	 viewBox="0 0 2122 2122" style="enable-background:new 0 0 2122 2122;" xml:space="preserve">
<path style="fill:#DE9859;" d="M1733.507,709.059c-10.441-7.829-42.587-36.127-53.091-65.756c5.905,1.91,11.756,3.988,17.544,6.231
	c23.055,8.894,44.852,20.928,65.154,35.281c-9.607-7.885-19.771-15.142-30.421-21.647c-10.777-6.273-21.846-12.127-33.403-16.916
	c-6.675-2.818-13.467-5.352-20.346-7.627c-0.721-2.638-1.252-5.279-1.563-7.907c-2.076-17.474-3.669-32.183-8.356-47.182
	c2.894,0.524,5.788,1.094,8.662,1.713c18.684,3.988,36.799,10.507,54.139,18.896c-8.229-5.001-16.853-9.401-25.754-13.201
	c-8.984-3.579-18.153-6.794-27.566-9.142c-3.606-0.919-7.231-1.735-10.875-2.453c-0.711-2.031-1.491-4.073-2.334-6.129
	c3.834-5.031,7.391-10.178,10.694-15.433c18.31,2.76,36.366,7.357,53.964,13.469c-11.133-4.816-22.617-8.885-34.358-12.117
	c-5.934-1.498-11.912-2.877-17.934-4.054c34.295-56.4,39.761-124.701,36.662-191.861c-1.174-25.384-5.481-50.305-7.873-75.496
	c-0.994-10.48,0.107-23.152-6.587-32.156c-7.586-10.205-16.429-4.107-24.098,2.897c-16.224,14.818-32.838,28.933-50.183,42.434
	c-25.067,19.508-50.309,38.85-76.585,56.691c-19.079,12.95-36.263,26.504-48.161,46.31c-22.899-8.819-47.698-13.764-74.46-13.667
	c-39.137,0.144-76.692-1.666-111.157,0.254c-10.796-12.945-24.156-23.094-38.597-32.897c-26.28-17.841-51.518-37.184-76.58-56.691
	c-17.349-13.501-33.963-27.615-50.192-42.434c-7.669-7.004-16.507-13.101-24.093-2.897c-6.692,9.004-5.591,21.676-6.588,32.156
	c-2.392,25.191-6.699,50.112-7.871,75.496c-2.707,58.697,1.123,118.265,25.026,169.995c-1.403,2.545-2.794,5.033-4.175,7.462
	c-0.853-0.326-1.705-0.648-2.558-0.967c-7.781-2.925-15.729-5.222-23.795-6.884c-16.156-3.116-32.811-3.727-49.508-0.863
	c-8.348,1.359-16.679,3.839-24.938,6.789c-8.243,3.201-16.38,7.233-24.341,12.008c16.224-7.888,32.757-13.223,49.235-15.296
	c16.465-2.107,32.86-1.537,48.755,1.888c7.983,1.505,15.864,3.64,23.596,6.402c0.499,0.171,0.996,0.346,1.493,0.521
	c-3.815,6.609-7.544,12.787-11.181,18.568c-4.784-1.52-9.686-2.471-14.568-3.333c-6.436-1.14-12.96-1.769-19.535-1.888
	c-13.162-0.008-26.551,1.963-39.72,6.716c-6.59,2.324-13.086,5.51-19.483,9.057c-6.363,3.769-12.585,8.132-18.592,13.094
	c12.475-8.319,25.32-14.782,38.336-18.726c13.001-3.968,26.126-5.932,39.052-5.574c6.478-0.019,12.921,0.463,19.289,1.452
	c4.409,0.636,8.775,1.479,13.077,2.577c-4.855,7.586-9.539,14.463-14.041,20.709c-7.004-0.682-14.105-0.453-21.172-0.066
	c-8.511,0.453-17.065,1.567-25.615,3.335c-17.086,3.739-34.187,10.065-50.648,19.705c-8.244,4.748-16.251,10.553-24.093,16.777
	c-7.778,6.45-15.286,13.652-22.47,21.478c14.987-14.241,30.794-26.177,47.191-34.996c16.375-8.841,33.208-15.101,50.092-18.446
	c8.438-1.88,16.896-3.121,25.325-3.703c6.285-0.494,12.545-0.696,18.75-0.465c-41.22,55.888-65.966,58.456-60.348,72.126
	c23.386,56.904,85.006,114.651,84.969,148.497c-0.048,43.963-62.465,39.084-92.758,33.393
	c-39.466-7.413-74.733-33.469-111.313-48.887c-43.681-18.411-129.98-26.617-175.732-12.461
	c-60.677,18.772-108.456,45.698-146.066,82.305c1.698-25.072,8.992-50.47,17.99-72.433c17.101-41.722,38.275-83.411,64.222-120.351
	c31.149-44.353,73.815-77.805,110.55-117.294c57.812-62.143,72.836-149.734,52.775-229.02
	c-17.316-68.441-60.775-130.692-125.423-165.04c-48.024-25.517-108.526-38.86-163.016-31.941
	c-34.573,4.392-68.195,17.683-102.782,22.838c-28.746,4.283-77.301,14.373-101.252-6.777
	c-5.914,60.772,39.688,81.849,79.045,116.716c64.74,57.359,17.527,176.711-14.134,239.873
	c-31.62,63.084-64.653,120.414-77.223,191.213c-11.506,64.801,1.444,128.49,23.074,189.712
	c26.11,73.915,69.724,151.623,129.291,204.755c-14.853,81.622-5.788,159.342,19.366,237.184
	c6.692,34.618,13.457,69.471,10.617,104.395c-3.898,47.929-44.171,88.58-43.869,135.408c0.219,33.883,19.026,65.528,22.539,99.961
	l-0.005,0.008c0.221,2.183,0.392,4.375,0.482,6.579c0.57,13.798,0.782,27.608,0.828,41.421c0.005,1.727,0.009,3.454,0.009,5.182
	c0.003,5.179-0.014,10.36-0.043,15.542c-0.027,5.182-0.063,10.363-0.103,15.544c-0.024,3.454-0.051,6.909-0.073,10.361
	c-0.025,3.454-0.044,6.908-0.058,10.36c-0.015,3.454-0.022,6.906-0.019,10.361c0,12.083,0.109,24.161,0.453,36.229
	c0.195,6.896,0.467,13.788,0.843,20.677c0.244,4.546,0.405,9.316,0.58,14.222l0.03,0.868c0.022,0.58,0.044,1.159,0.063,1.742
	c0.053,1.457,0.11,2.923,0.171,4.397c0.024,0.59,0.048,1.181,0.078,1.774c0.129,2.96,0.285,5.949,0.482,8.948
	c0.041,0.599,0.083,1.198,0.127,1.797l0.066,0.901c0.046,0.599,0.095,1.201,0.144,1.803c0.097,1.198,0.207,2.402,0.324,3.601
	c0.09,0.901,0.183,1.8,0.283,2.699c0.499,4.49,1.152,8.952,2.024,13.323c0.117,0.585,0.239,1.164,0.363,1.744
	c0.373,1.739,0.782,3.462,1.23,5.162c0.151,0.57,0.307,1.135,0.465,1.698c1.196,4.222,2.653,8.309,4.443,12.202
	c0.239,0.521,0.485,1.035,0.733,1.547c1.004,2.048,2.102,4.039,3.308,5.961c0.604,0.962,1.233,1.907,1.89,2.833
	c0.492,0.694,1.004,1.378,1.528,2.053c1.225,1.573,2.54,3.086,3.949,4.539l0.609,0.616c2.875,2.865,6.134,5.466,9.832,7.759
	c0.658,0.407,1.423,0.838,2.281,1.291l0.663,0.341c0.682,0.346,1.413,0.704,2.192,1.065c2.592,1.208,5.701,2.492,9.121,3.732
	c0.682,0.249,1.379,0.495,2.085,0.738c1.413,0.487,2.87,0.964,4.353,1.425c0.743,0.229,1.493,0.453,2.249,0.675l1.14,0.324
	c6.47,1.823,13.296,3.218,19.469,3.622l1.082,0.061c0.716,0.034,1.423,0.051,2.119,0.056c1.391,0.007,2.734-0.043,4.02-0.163
	l0.952-0.105c2.509-0.309,4.768-0.899,6.672-1.824c0.95-0.465,1.813-1.013,2.572-1.654l0.636-0.585l0.594-0.641l0.283-0.341
	l0.536-0.721c0.343-0.499,0.663-1.033,0.957-1.6l0.424-0.872l0.198-0.453l0.368-0.94l0.772,0.409
	c0.509,0.263,1.008,0.507,1.498,0.728c0.489,0.222,0.969,0.422,1.435,0.597c0.467,0.178,0.923,0.331,1.361,0.458l0.653,0.173
	c10.022,2.399,19.147,3.06,26.984,2.122c0.711-0.085,1.415-0.183,2.105-0.295l1.028-0.177c1.698-0.312,3.328-0.706,4.884-1.179
	c1.245-0.38,2.441-0.811,3.589-1.291c0.572-0.241,1.135-0.494,1.683-0.76c1.646-0.797,3.177-1.705,4.584-2.724
	c2.582-1.868,4.752-4.105,6.46-6.694l0.453-0.716c1.476-2.412,2.567-5.113,3.237-8.092l0.979,0.026
	c5.167,0.032,9.398-1.627,12.791-4.463l1.233-1.115l1.154-1.223c0.375-0.424,0.733-0.863,1.082-1.321
	c0.692-0.911,1.338-1.883,1.934-2.911c1.786-3.079,3.133-6.64,4.083-10.468c0.158-0.639,0.307-1.284,0.444-1.934
	c0.204-0.979,0.382-1.971,0.541-2.972c0.102-0.67,0.195-1.343,0.28-2.02c0.207-1.693,0.351-3.411,0.431-5.138
	c0.209-4.487,0-9.033-0.58-13.362c-0.697-5.206-1.978-9.908-3.664-14.254l-0.468-1.179c-0.319-0.777-0.651-1.545-0.994-2.302
	c-0.516-1.138-1.057-2.249-1.617-3.34c-0.375-0.728-0.763-1.447-1.155-2.159c-3.941-7.108-8.753-13.398-13.315-19.759
	c-0.453-0.636-0.909-1.274-1.359-1.912c-0.674-0.957-1.34-1.92-1.995-2.887c-0.655-0.967-1.298-1.942-1.927-2.926
	c-0.417-0.658-0.828-1.318-1.233-1.983c-0.604-0.999-1.189-2.01-1.754-3.033c-1.691-3.074-3.186-6.28-4.38-9.701
	c-0.263-0.757-0.514-1.53-0.748-2.311l-0.338-1.179c-3.713-13.51-3.469-28.689-2.156-43.856c0.078-0.894,0.159-1.786,0.242-2.677
	c0.127-1.338,0.26-2.675,0.399-4.01c0.137-1.335,0.28-2.668,0.427-3.998l0.146-1.328c0.443-3.983,0.909-7.932,1.339-11.819
	l0.144-1.294c0.519-4.734,0.979-9.369,1.287-13.847c2.08-30.485,10.331-56.358,26.591-78.375c0.395-0.536,0.797-1.072,1.204-1.603
	c0.811-1.065,1.642-2.122,2.495-3.167c2.977-3.664,6.192-7.216,9.654-10.662c0.989-0.984,2-1.961,3.028-2.926
	c2.573-2.419,5.274-4.782,8.107-7.093c1.698-1.386,3.445-2.753,5.237-4.103c1.196-0.899,2.412-1.79,3.65-2.673
	c0.619-0.44,1.245-0.882,1.876-1.318l0.042-0.032c0.782-0.543,1.561-1.094,2.333-1.649l0.424-0.302
	c0.75-0.541,1.498-1.087,2.239-1.637l0.47-0.351c0.755-0.563,1.508-1.128,2.253-1.703l0.161-0.124
	c0.711-0.546,1.417-1.099,2.119-1.657l0.46-0.363c0.707-0.563,1.406-1.128,2.105-1.698l0.499-0.412
	c0.714-0.587,1.425-1.179,2.129-1.776l0.204-0.176c0.67-0.567,1.335-1.14,1.998-1.717l0.424-0.368c0.68-0.597,1.354-1.196,2.027-1.8
	l0.483-0.436c0.665-0.604,1.327-1.208,1.985-1.819l0.402-0.378c0.565-0.526,1.123-1.057,1.681-1.589l0.516-0.494
	c0.619-0.594,1.233-1.194,1.844-1.796l0.562-0.56c0.614-0.609,1.228-1.223,1.832-1.839l0.468-0.48
	c0.502-0.516,1.004-1.035,1.503-1.557l0.548-0.573c0.57-0.599,1.135-1.203,1.696-1.807l0.65-0.707
	c0.546-0.594,1.089-1.189,1.63-1.791l0.636-0.711c0.397-0.448,0.792-0.896,1.186-1.348l0.653-0.743
	c3.281,0.358,6.57,0.66,9.863,0.908c-0.509,2.471-0.991,4.941-1.439,7.416c-4.205,23.255-14.317,62.972-0.422,85.294
	c9.269,14.889,30.804,22.962,43.422,35.6c13.198,13.22,24.227,28.743,33.859,44.626c19.479,32.117,56.076,111.83,105.23,100.609
	c5.734-1.31,9.829-4.212,12.555-7.992c14.127,6.862,36.438,13.435,44.341,2.777c0.969-1.311,1.54-2.998,1.793-4.945
	c9.861,0.597,15.367,0.422,22.933-2.222c16.175-5.652-12.132-58.031-25.471-68.47c-6.655-5.208-14.582-3.389-21.615-7.688
	c-11.174-6.826-13.525-20.502-18.957-31.732c-17.138-35.43-30.351-51.152-12.626-89.464c19.752-42.687,48.823-81.177,75.832-120.312
	c36.47,1.333,72.636,9.425,108.774,18.385v0.005c9.06,2.246,18.122,4.548,27.179,6.809c12.872,40.066,30.193,78.636,49.437,116.176
	c24.126,47.067,49.822,100.307,51.488,153.937c1.125,36.216,5.647,64.626,20.263,98.275c11.498,26.473,28.224,58.94,56.916,68.694
	c13.228,4.497,51.235,10.485,63.123,3.846c2.197-1.228,3.966-2.884,5.539-4.721c10.295,1.966,48.243,0.193,55.386-6.075
	c1.744-1.533,2.977-3.25,3.917-5.062c8.565,1.491,17.101-0.236,24.273-7.581c17.987-18.407-0.955-75.674-15.961-91.946
	c-8.297-8.999-22.265-13.118-30.528-22.495c-14.061-15.953-16.132-40.582-20.979-61.121c-2.051-8.672-4.662-17.176-7.484-25.603
	c6.558-16.241,8.643-38.597,11.786-50.475c20.375-77.047,47.143-152.048,78.261-225.354c4.399-10.365,8.555-20.831,12.594-31.342
	c3.483-3.148,6.977-6.317,10.538-9.474c21.193-18.796,38.172-38.494,54.265-61.849c12.96-18.807,33.277-45.627,35.605-69.452
	c0.02,10.516,2.49,20.959,2.495,31.454c23.425-30.485,35.503-80.132,44.658-117.104c6.524-26.336,17.783-64.687,9.934-91.14
	c5.262,3.114,8.253,10.439,10.485,15.903c-0.453-51.537-2.641-100.058-14.748-150.411c-4.784-19.915-16.355-46.034-17.076-65.9
	c5.028,4.127,9.676,11.844,11.766,18.331c-4.614-19.452-4.278-41.213-7.172-61.138c-3.664-25.257-6.393-50.078,1.101-75.026
	c6.733-22.431,20.127-43.968,35.664-61.345c6.84-7.649,14.772-14.08,22.3-20.92C1731.261,726.968,1741.585,715.117,1733.507,709.059
	z"/>
<path style="fill:#FFF0DB;" d="M1218.024,381.902c-9.651-27.118-24.765-52.029-42.738-74.421
	c-7.664-9.554-16.662-22.981-26.611-30.173c-2.796-2.025-5.155-2.982-7.133-3.114c-11.997-0.792-10.214,28.826-9.905,36.341
	c1.215,29.757-5.118,59.591-6.217,89.286c-1.272,34.463,3.096,69.184,13.033,102.192c1.564,5.204,3.406,10.994,5.598,16.807
	c5.842-11.199,11.849-23.394,17.997-36.685c16.292-35.232,38.031-57.201,63.903-70.828
	C1223.875,400.555,1221.045,390.384,1218.024,381.902z"/>
<path style="fill:#FFF0DB;" d="M1157.849,1549.806c-3.342-10.412-6.388-20.926-9.087-31.547
	c-7.152-28.136-9.203-52.719-20.906-79.893c-6.719-15.598-15.369-30.789-22.821-46.188l-0.005-0.009
	c-1.62,0.217-3.24,0.434-4.86,0.655c-58.434,7.995-119.162,23.588-178.429,16.388c-48.105-5.844-84.029-54.926-114.193-88.836
	c0.38,1.564,0.745,3.133,1.099,4.707c17.428,77.52,5.094,165.615-37.588,230.667l-0.115,0.173c-0.619,0.943-1.242,1.878-1.876,2.809
	l-0.292,0.433c-0.645,0.946-1.296,1.888-1.954,2.821l-0.107,0.156c-0.336,0.48-0.677,0.957-1.018,1.437l-0.378,0.521
	c-0.543,0.753-1.089,1.503-1.639,2.249l-0.587,0.794c-0.419,0.563-0.841,1.125-1.264,1.683l-0.892,1.164l-0.848,1.099l-1.021,1.298
	c-0.355,0.45-0.713,0.899-1.074,1.344l-0.914,1.133l-0.882,1.077c-0.438,0.531-0.88,1.06-1.323,1.589l-0.74,0.879
	c-0.502,0.587-1.004,1.177-1.511,1.759l-0.019,0.022l-0.01,0.012c3.281,0.358,6.57,0.66,9.863,0.908
	c21.986,1.659,44.214,0.914,66.164-1.892c53.81-6.88,86.338-40.88,137.483-50.653c18.699-3.576,37.281-4.636,55.788-3.958
	c36.47,1.333,72.636,9.425,108.774,18.385v0.005C1139.729,1545.243,1148.792,1547.545,1157.849,1549.806z"/>
<path style="fill:#D08649;" d="M598.841,865.526c1.698-25.072,8.992-50.47,17.99-72.433c17.101-41.722,38.275-83.411,64.222-120.351
	c31.149-44.353,73.815-77.805,110.55-117.294c57.812-62.143,72.836-149.734,52.775-229.02
	c-17.316-68.441-60.775-130.692-125.423-165.04c-48.024-25.517-108.526-38.86-163.016-31.941
	c-34.573,4.392-68.195,17.683-102.782,22.838c-28.746,4.283-77.301,14.373-101.252-6.777
	c-5.914,60.772,39.688,81.849,79.045,116.716c64.74,57.359,17.527,176.711-14.134,239.873
	c-31.62,63.084-64.653,120.414-77.223,191.213c-11.506,64.801,1.444,128.49,23.074,189.712
	c26.11,73.915,69.724,151.623,129.291,204.755c1.659-9.123,3.615-18.295,5.886-27.522
	C518.358,976.817,550.039,913.024,598.841,865.526z"/>
<path style="fill:#D08649;" d="M966.107,1528.566c-51.145,9.774-83.674,43.773-137.483,50.653
	c-21.949,2.806-44.178,3.552-66.164,1.892c-0.509,2.471-0.991,4.941-1.439,7.416c-4.205,23.255-14.317,62.972-0.422,85.294
	c9.269,14.889,30.804,22.962,43.422,35.6c13.198,13.22,24.227,28.743,33.859,44.626c19.479,32.117,56.076,111.83,105.23,100.609
	c5.734-1.31,9.829-4.212,12.555-7.992c14.127,6.862,36.438,13.435,44.341,2.777c0.969-1.311,1.54-2.998,1.793-4.945
	c9.861,0.597,15.367,0.422,22.933-2.222c16.175-5.652-12.132-58.031-25.471-68.47c-6.655-5.208-14.582-3.389-21.615-7.688
	c-11.174-6.826-13.525-20.502-18.957-31.732c-17.138-35.43-30.351-51.152-12.626-89.464c19.752-42.687,48.823-81.177,75.832-120.312
	C1003.388,1523.93,984.806,1524.99,966.107,1528.566z"/>
<path style="fill:#D08649;" d="M1475.286,1494.188c3.142-4.297,5.442-9.593,6.173-14.975c-6.456,7.832-20.614,18.275-30.032,24.899
	c-4.521,3.181-9.291,6.706-14.104,10.297l-0.005,0.013c-6.226,4.648-12.511,9.383-18.446,13.641l-0.73,0.524l-0.302,0.214
	l-1.189,0.848c-1.549,1.094-3.074,2.083-4.584,2.984c-1.135,0.68-2.256,1.309-3.381,1.9c-0.745,0.395-1.491,0.775-2.236,1.138
	c-0.745,0.363-1.491,0.714-2.236,1.053c-1.491,0.679-2.982,1.313-4.488,1.927c-3.05,1.238-6.144,2.39-9.369,3.645
	c-0.297,3.493-0.526,7.106-0.667,10.853c-1.725,44.884-2.387,92.124,2.11,136.723c2.66,26.416,12.994,50.996,21.442,76.258
	c6.558-16.241,8.643-38.597,11.786-50.475c20.375-77.047,47.143-152.048,78.261-225.354c4.399-10.365,8.555-20.831,12.594-31.342
	c-8.024,7.242-16.01,14.355-24.751,20.914C1485.2,1484.323,1479.666,1488.059,1475.286,1494.188z"/>
<path style="fill:#FFF0DB;" d="M1648.445,740.574c-16.858,2.144-28.463-4.429-39.567-13.043
	c-6.797-5.274-13.408-11.311-20.925-16.585c-4.064,9.864-3.235,21.233,0.331,30.76c-12.263-2.49-23.815-8.17-35.001-13.639
	c-6.884-3.365-15.274-5.355-20.156-11.642c-2.528,4.808-0.931,12.363,1.325,16.933c-18.178-5.613-32.828-27.776-44.916-41.388
	c-18.378-20.704-35.255-42.628-57.744-59.335c-18.085-13.437-41.598-25.598-63.859-29.939c-7.903-1.542-16.268-2.061-24.312-2.502
	c-1.681-0.093-3.357-0.212-5.033-0.348l0.239,1.169c-6.426-0.512-11.683-1.467-16.126,0.645
	c-9.642,4.585-18.12,12.648-24.818,20.843c-2.909,3.559-5.574,7.327-8.677,10.726c-2.602,2.857-5.729,7.442-9.398,8.943
	l-0.414,0.161c-2.787,1.013-4.989,0.495-6.777-0.877c-3.951-3.033-5.88-10.231-7.679-14.234c-2.275-5.074-4.331-10.719-7.332-15.379
	c-1.924-2.984-4.239-6.317-6.782-8.777c-2.879-2.775-6.362-6.244-9.822-8.285c-0.789-0.47-4.857-2-8.156-2.609
	c-1.466,0.183-2.933,0.387-4.385,0.614c-11.844,1.859-23.113,5.328-31.717,12.414c-36.058,29.691-34.816,81.121-93.817,78.55
	c-8.802-0.382-46.246-17.344-48.685-26.957c11.313,44.582,46.327,72.536,64.1,113.418c13.211,30.387,20.414,61.155,43.771,84.884
	c-7.084-2.276-14.5-4.823-21.062-7.679c23.859,42.193,56.2,78.4,87.503,115.332c21.983,25.935,40.195,67.642,72,82.529
	c-11.649-0.341-22.694-6.134-33.627-9.452c5.569,10.061,16.014,18.08,24.044,26.168c10.913,10.991,20.726,22.991,31.279,34.333
	c15.474,16.631,32.331,32.845,46.909,50.171c16.204,19.269,29.462,41.372,43.308,61.847c-8.833-8.729-20.935-11.503-31.674-16.271
	c10.309,17.464,27.406,32.254,33.788,52.003c0.531,1.646,0.955,3.315,1.276,5.001c0.56,1.118,1.106,2.246,1.647,3.391
	c24.453,52.151,25.043,133.298,5.544,184.034c-15.283,39.774-29.169,64.733-32.692,105.793c3.225-1.255,6.319-2.407,9.369-3.645
	c1.506-0.614,2.996-1.247,4.488-1.927c0.745-0.339,1.491-0.69,2.236-1.053c0.745-0.363,1.491-0.743,2.236-1.138
	c1.125-0.592,2.246-1.22,3.381-1.9c1.51-0.901,3.035-1.89,4.584-2.984l1.189-0.848l0.302-0.214l0.73-0.524
	c5.934-4.258,12.219-8.994,18.446-13.641l0.005-0.013c4.813-3.591,9.583-7.116,14.104-10.297
	c9.418-6.624,23.576-17.067,30.032-24.899c-0.731,5.381-3.031,10.677-6.173,14.975c4.38-6.129,9.915-9.866,15.844-14.317
	c8.741-6.558,16.726-13.672,24.751-20.914c3.483-3.148,6.977-6.317,10.538-9.474c21.193-18.796,38.172-38.494,54.265-61.849
	c12.96-18.807,33.277-45.627,35.605-69.452c0.02,10.516,2.49,20.959,2.495,31.454c23.425-30.485,35.503-80.132,44.658-117.104
	c6.524-26.336,17.783-64.687,9.934-91.14c5.262,3.114,8.253,10.439,10.485,15.903c-0.453-51.537-2.641-100.058-14.748-150.411
	c-4.784-19.915-16.355-46.034-17.076-65.9c5.028,4.127,9.676,11.844,11.766,18.331c-4.614-19.452-4.278-41.213-7.172-61.138
	c-3.664-25.257-6.393-50.078,1.101-75.026c6.733-22.431,20.127-43.968,35.664-61.345c6.84-7.649,14.772-14.08,22.3-20.92l0.73-0.665
	c3.742-3.425,16.356-22.57,19.533-23.586C1707.666,725.692,1679.661,736.606,1648.445,740.574z"/>
<path style="fill:#FBCEB7;" d="M807.17,1581.267c6.051-9.087,11.413-18.636,16.005-28.634
	c33.067-72.005,23.057-159.203-14.527-227.551c17.428,77.52,5.094,165.615-37.588,230.667l-0.115,0.173
	c-0.619,0.943-1.242,1.878-1.876,2.809l-0.292,0.433c-0.645,0.946-1.296,1.888-1.954,2.821l-0.107,0.156
	c-0.336,0.48-0.677,0.957-1.018,1.437l-0.378,0.521c-0.543,0.753-1.089,1.503-1.639,2.249l-0.587,0.794
	c-0.419,0.563-0.841,1.125-1.264,1.683l-0.892,1.164l-0.848,1.099l-1.021,1.298c-0.355,0.45-0.713,0.899-1.074,1.344l-0.914,1.133
	l-0.882,1.077c-0.438,0.531-0.88,1.06-1.323,1.589l-0.74,0.879c-0.502,0.587-1.004,1.177-1.511,1.759l-0.019,0.022
	C770.672,1582.154,788.96,1582.449,807.17,1581.267z"/>
<path style="fill:#FBCEB7;" d="M1148.762,1518.259c-7.152-28.136-9.203-52.719-20.906-79.893
	c-6.719-15.598-15.369-30.789-22.821-46.188l-0.273,0.036c4.516,16.977,9.773,33.744,14.514,50.663
	c5.676,20.251,7.736,40.317,8.867,61.242c0.701,12.977,1.503,25.939,2.526,38.872v0.005c9.06,2.246,18.122,4.548,27.179,6.809
	C1154.506,1539.394,1151.461,1528.88,1148.762,1518.259z"/>
<path style="fill:#FBCEB7;" d="M1404.212,1536.724c0.745-0.339,1.491-0.69,2.236-1.053c0.745-0.363,1.491-0.743,2.236-1.138
	c1.125-0.592,2.246-1.22,3.381-1.9c1.51-0.901,3.035-1.89,4.584-2.984l1.189-0.848l0.302-0.214l0.73-0.524
	c5.934-4.258,12.219-8.994,18.446-13.641l0.005-0.013c0.721-3.825,1.432-7.652,2.163-11.474
	c9.968-52.076,20.536-105.167,15.235-158.426c-3.148-31.569-12.76-69.593-37.218-92.041c24.453,52.151,25.043,133.298,5.544,184.034
	c-15.283,39.774-29.169,64.733-32.692,105.793c3.225-1.255,6.319-2.407,9.369-3.645
	C1401.23,1538.037,1402.72,1537.404,1404.212,1536.724z"/>
<path style="fill:#2F2723;" d="M1272.616,641.456c-0.195,1.352-0.351,2.709-0.472,4.086c-0.385,4.322-0.424,8.694,0.044,13.047
	c0.083,0.926,0.205,1.851,0.331,2.774c-0.853,2.641-1.837,5.231-3.04,7.72c-1.559,2.96-3.289,5.842-5.423,8.416
	c-4.19,5.218-9.705,9.294-15.839,12.171c-6.154,2.877-12.936,4.485-19.825,5.203c-6.899,0.68-13.929,0.811-20.706-0.431
	c-3.415-0.519-6.675-1.644-9.832-2.962c-3.04-1.511-6.061-3.213-8.512-5.615c-5.082-4.621-8.317-11.043-10.022-17.793
	c-0.819-3.396-1.316-6.87-1.549-10.373c-0.38,0.024-0.663,7.189,0.058,10.716c1.505,7.011,4.633,13.929,9.924,19.106
	c2.548,2.677,5.725,4.641,8.95,6.378c3.323,1.54,6.786,2.86,10.368,3.542c7.152,1.573,14.456,1.693,21.666,1.245
	c7.225-0.497,14.504-1.92,21.335-4.816c6.801-2.887,13.159-7.218,18.075-12.911c2.5-2.811,4.561-5.963,6.416-9.216l0.209-0.438
	c1.374,4.271,3.269,8.39,5.745,12.183c2.412,3.742,5.422,7.064,8.726,9.981c3.333,2.904,7.08,5.208,10.924,7.208
	c7.824,3.747,16.165,5.917,24.541,6.96c4.19,0.573,8.443,0.804,12.692,0.716c4.243-0.304,8.511-0.782,12.579-2.18
	c8.156-2.616,15.284-8.407,19.274-15.903c3.192-5.747,5.457-18.543,5.233-18.573c-1.141,6.307-3.109,12.461-6.387,17.898
	c-4.122,7.111-11.016,12.268-18.772,14.475c-3.868,1.186-7.951,1.496-11.99,1.647c-4.069-0.073-8.132-0.383-12.156-1.145
	c-8.039-1.469-15.897-3.961-22.796-7.995c-3.376-2.107-6.597-4.428-9.359-7.201c-2.757-2.777-5.096-5.902-7.06-9.233
	c-6.377-11.194-7.786-24.75-6.573-37.81C1276.606,643.346,1274.404,642.827,1272.616,641.456z"/>
<path style="fill:#FFF0DB;" d="M1620.64,446.686c-3.707,18.792,7.713,45.296,18.285,60.68c1.315-5.116,5.125-14.151,9.778-17.082
	c0.366,7.601,5.077,16.166,7.489,23.396c3.722,11.152,6.509,23.201,8.969,34.204c10.782-11.235,17.525-30.959,22.017-45.871
	c9.93-33.008,14.3-67.73,13.028-102.192c-1.097-29.695-7.43-59.53-6.217-89.286c0.312-7.515,2.095-37.133-9.905-36.341
	c-1.978,0.132-4.336,1.089-7.137,3.114c-9.944,7.191-18.943,20.619-26.612,30.173c-17.969,22.392-33.082,47.303-42.738,74.421
	c-8.931,25.086-16.185,64.906-7.294,91.04C1603.529,463.332,1611.661,450.411,1620.64,446.686z"/>
<path style="fill:#F4A7A7;" d="M1338.589,599.846c-9.763-44.037-99.089-44.802-110.129-7.06c0.302-1.018,2.168-1.023,4.385-0.614
	c3.299,0.609,7.367,2.139,8.156,2.609c3.459,2.042,6.943,5.51,9.822,8.285c2.543,2.46,4.858,5.793,6.782,8.777
	c3.001,4.66,5.057,10.304,7.332,15.379c1.798,4.002,3.727,11.201,7.679,14.234c1.788,1.372,3.99,1.89,6.777,0.877l0.414-0.161
	c3.669-1.501,6.797-6.086,9.398-8.943c3.104-3.399,5.769-7.167,8.677-10.726c6.699-8.195,15.177-16.258,24.818-20.843
	c4.443-2.112,9.7-1.157,16.126-0.645L1338.589,599.846z"/>
<path style="fill:#D08649;" d="M1496.031,495.061c0,0-9.184-37.571-31.966-48.787c-23.108-11.381-38.026,10.122-38.026,10.122
	C1468.786,438.467,1496.031,495.061,1496.031,495.061z"/>
<path style="fill:#D08649;" d="M1258.297,459.646c0,0-4.229-24.54-23.601-19.917c-19.094,4.556-36.273,37.922-36.273,37.922
	S1233.644,431.008,1258.297,459.646z"/>
<path style="fill:#2F2723;" d="M1464.29,523.846c-0.97-9.13-3.308-17.386-6.451-23.837c-0.799,1.815-2.616,3.087-4.726,3.087
	c-2.85,0-5.16-2.309-5.16-5.16c0-2.848,2.31-5.157,5.16-5.157l0.287,0.01c-3.63-4.607-7.795-7.121-11.971-6.677
	c-10.295,1.092-16.755,19.757-14.426,41.69c2.324,21.934,12.56,38.829,22.855,37.735
	C1460.153,564.445,1466.613,545.78,1464.29,523.846z"/>
<path style="fill:#2F2723;" d="M1242.107,505.807c-0.745,0.414-1.603,0.652-2.514,0.652c-2.85,0-5.16-2.309-5.16-5.157
	c0-2.609,1.939-4.765,4.453-5.108c-1.116-1.53-2.495-2.614-4.117-3.155c-8.073-2.673-19.23,9.098-24.926,26.29
	c-5.695,17.191-3.766,33.296,4.302,35.969c8.073,2.672,19.23-9.096,24.926-26.288
	C1241.882,520.511,1242.838,512.282,1242.107,505.807z"/>
<path style="fill:#FFFFFF;" d="M1447.953,497.936c0,2.85,2.31,5.16,5.16,5.16c2.11,0,3.927-1.272,4.726-3.087
	c0.277-0.636,0.429-1.335,0.429-2.073c0-2.751-2.153-4.999-4.867-5.147l-0.287-0.01
	C1450.262,492.779,1447.953,495.088,1447.953,497.936z"/>
<path style="fill:#FFFFFF;" d="M1234.433,501.302c0,2.848,2.309,5.157,5.16,5.157c0.911,0,1.769-0.238,2.514-0.652
	c1.579-0.882,2.645-2.57,2.645-4.505c0-2.85-2.309-5.157-5.159-5.157l-0.707,0.049
	C1236.373,496.537,1234.433,498.694,1234.433,501.302z"/>
<path style="fill:#FBDEDC;" d="M1281.498,577.595c12.506-0.543,25.7,1.077,36.448,7.949c-1.72-4.037-5.997-6.512-9.501-8.824
	c-5.34-3.52-11.337-5.52-17.588-6.388c-11.494-1.596-23.835,0.644-34.446,4.305c-6.363,2.195-16.327,7.742-18.899,14.505
	c2.081-0.519,4.468-2.616,6.529-3.572C1255.758,580.141,1268.665,578.153,1281.498,577.595z"/>
<path style="fill:#D08649;" d="M1323.681,561.687c-2.149-1.271-4.268-2.648-6.509-3.751l-6.85-3.04
	c-2.368-0.765-4.77-1.413-7.162-2.119c-2.407-0.619-4.882-0.862-7.328-1.303c-9.822-0.858-19.956-0.268-29.169,3.454l-3.493,1.171
	c-1.13,0.502-2.236,1.062-3.333,1.632l-6.553,3.413c-4.18,2.628-8.112,5.71-11.927,8.787c4.623-1.559,8.901-3.661,13.335-5.225
	l6.704-2.08l3.303-1.072l3.391-0.66c2.26-0.419,4.497-0.897,6.719-1.389l6.777-0.545c2.241-0.331,4.492-0.198,6.743-0.122
	c2.246,0.098,4.507-0.004,6.719,0.487c8.96,0.845,17.696,3.742,26.027,7.807c8.336,4.115,16.234,9.53,23.683,16.034
	C1339.485,574.411,1332.08,567.132,1323.681,561.687z"/>
<path style="fill:#2F2723;" d="M1586.672,553.076c-12.087,1.664-24.083,3.966-35.912,6.899
	c-11.805,2.914-23.645,6.061-35.001,10.653c-22.748,8.989-43.82,21.206-64.658,33.589c21.749-10.724,43.226-22.124,65.9-30.29
	c11.337-3.995,22.953-7.189,34.723-9.881c11.737-2.77,23.611-4.909,35.557-6.412c23.844-3.427,48.068-3.98,72.054-1.836
	c5.574,0.489,11.128,1.157,16.657,1.99c18.31,2.76,36.366,7.357,53.964,13.469c-11.133-4.816-22.617-8.885-34.358-12.117
	c-5.934-1.498-11.912-2.877-17.934-4.054c-5.944-1.162-11.932-2.127-17.954-2.811
	C1635.471,549.368,1610.862,549.963,1586.672,553.076z"/>
<path style="fill:#2F2723;" d="M1620.83,574.99c-9.7,0.112-19.391,0.738-29.008,1.876c-9.598,1.133-19.255,2.417-28.667,4.953
	c-18.831,4.882-36.619,12.478-54.192,20.317c18.27-6.078,36.356-12.814,55.011-16.887c9.311-1.946,18.758-3.303,28.292-4.224
	c9.506-0.986,19.055-1.464,28.595-1.435c16.141-0.292,32.283,1.089,48.166,3.946c2.894,0.524,5.788,1.094,8.662,1.713
	c18.684,3.988,36.799,10.507,54.139,18.896c-8.229-5.001-16.853-9.401-25.754-13.201c-8.984-3.579-18.153-6.794-27.566-9.142
	c-3.606-0.919-7.231-1.735-10.875-2.453C1652.24,576.309,1636.508,575,1620.83,574.99z"/>
<path style="fill:#2F2723;" d="M1589.824,622.966c-12.449-0.48-24.999-0.733-37.481,0.562c-24.95,2.395-49.169,8.443-73.203,14.709
	c24.453-4.419,48.838-9.571,73.486-11.196c12.297-0.728,24.648-0.577,37.004,0.103c12.346,0.597,24.648,1.856,36.843,3.761
	c18.304,2.536,36.365,6.716,53.944,12.397c5.905,1.91,11.756,3.988,17.544,6.231c23.055,8.894,44.852,20.928,65.154,35.281
	c-9.607-7.885-19.771-15.142-30.421-21.647c-10.777-6.273-21.846-12.127-33.403-16.916c-6.675-2.818-13.467-5.352-20.346-7.627
	c-16.862-5.578-34.256-9.581-51.8-12.27C1614.769,624.565,1602.306,623.432,1589.824,622.966z"/>
<path style="fill:#2F2723;" d="M1151.339,553.604c14.704,8.134,28.326,19.479,42.188,30.151
	c-13.106-12.319-26.383-24.475-41.067-33.427c-6.519-4.071-13.393-7.004-20.307-9.647c-0.853-0.326-1.705-0.648-2.558-0.967
	c-7.781-2.925-15.729-5.222-23.795-6.884c-16.156-3.116-32.811-3.727-49.508-0.863c-8.348,1.359-16.679,3.839-24.938,6.789
	c-8.243,3.201-16.38,7.233-24.341,12.008c16.224-7.888,32.757-13.223,49.235-15.296c16.465-2.107,32.86-1.537,48.755,1.888
	c7.983,1.505,15.864,3.64,23.596,6.402c0.499,0.171,0.996,0.346,1.493,0.521C1137.337,546.857,1144.455,549.882,1151.339,553.604z"
	/>
<path style="fill:#2F2723;" d="M1158.462,584.694c-11.269-7.805-22.709-15.367-35.079-20.232c-1.476-0.607-2.969-1.138-4.473-1.615
	c-4.784-1.52-9.686-2.471-14.568-3.333c-6.436-1.14-12.96-1.769-19.535-1.888c-13.162-0.008-26.551,1.963-39.72,6.716
	c-6.59,2.324-13.086,5.51-19.483,9.057c-6.363,3.769-12.585,8.132-18.592,13.094c12.475-8.319,25.32-14.782,38.336-18.726
	c13.001-3.968,26.126-5.932,39.052-5.574c6.478-0.019,12.921,0.463,19.289,1.452c4.409,0.636,8.775,1.479,13.077,2.577
	c1.939,0.494,3.864,1.043,5.774,1.644C1134.862,571.931,1146.57,578.638,1158.462,584.694z"/>
<path style="fill:#2F2723;" d="M1155.403,602.136c-15.786-6.246-31.72-12.276-48.453-14.677c-1.403-0.217-2.811-0.39-4.224-0.526
	c-7.004-0.682-14.105-0.453-21.172-0.066c-8.511,0.453-17.065,1.567-25.615,3.335c-17.086,3.739-34.187,10.065-50.648,19.705
	c-8.244,4.748-16.251,10.553-24.093,16.777c-7.778,6.45-15.286,13.652-22.47,21.478c14.987-14.241,30.794-26.177,47.191-34.996
	c16.375-8.841,33.208-15.101,50.092-18.446c8.438-1.88,16.896-3.121,25.325-3.703c6.285-0.494,12.545-0.696,18.75-0.465
	c2.131,0.08,4.256,0.209,6.375,0.397C1123.06,592.586,1139.174,597.727,1155.403,602.136z"/>
<path style="fill:#FBCEB7;" d="M1186.862,845.648c0,0,9.33,52.412,30.656,69.739c40.609,32.996,153.759,31.306,153.759,31.306
	C1231.842,899.212,1186.862,845.648,1186.862,845.648z"/>
<path style="fill:#FBCEB7;" d="M1615.446,900.835c12.779-24.327,2.763-46.607,2.763-46.607s-19.756,55.211-59.732,83.181
	C1558.477,937.409,1602.321,925.823,1615.446,900.835z"/>
<path style="fill:#FBCEB7;" d="M1622.233,1135.036c1.203,4.258-1.228,9.5-2.217,13.62c-1.471,6.137-2.704,12.309-4.355,18.409
	c-2.066,7.645-4.444,15.206-7.118,22.663c-1.603,4.456-7.878,13.876-7.674,18.499c-0.468-10.843-4.146-19.907-7.469-30.036
	c3.02,9.211-3.225,20.736-6.027,29.352c-3.654,11.245-7.371,22.47-11.196,33.659c-7.527,22.024-15.449,43.917-24.054,65.542
	c-7.415,18.636-17.32,35.286-26.304,52.872c2.158-1.304,3.941-3.04,5.676-4.858c8.156-8.531,16.263-16.784,23.401-26.19
	c8.361-11.025,16.083-22.385,23.805-33.87c5.89-8.76,10.124-18.67,15.912-27.325c1.345,12.227-1.715,23.971-4.424,35.788
	c5.72-3.929,9.613-14.173,12.638-20.606C1623.777,1238.045,1635.894,1183.465,1622.233,1135.036z"/>
<path style="fill:#FBCEB7;" d="M1175.749,396.05l-0.209,1.325c-0.448-1.503-0.863-2.996-1.223-4.483
	c-1.564-6.431-3.133-12.86-4.707-19.289c-0.56,12.926-2.451,25.63-3.298,38.514c-0.853,12.882-0.614,26.183,2.957,38.755
	c-1.657-5.829-0.624-14.375-0.239-20.258c0.448-6.833,1.311-13.798,3.001-20.287c0.429,0.723,0.702,2.051,0.935,3.108l4.521,20.441
	c-0.409-1.842,0.682-4.897,0.828-6.731c0.283-3.622,0.794-7.068,1.442-10.634c1.973-10.853,4.131-21.817,4.283-33.086
	c0.161-11.917-1.686-23.946-5.014-35.469c-5.296-18.339-14.173-35.768-24.531-50.611c-1.554-2.229-3.888-4.507-5.111-6.953
	C1165.02,321.595,1180.46,360.187,1175.749,396.05z"/>
<path style="fill:#FBCEB7;" d="M1630.901,373.536c4.77-16.531,12.774-32.243,22.109-45.622c1.403-2.009,3.503-4.06,4.609-6.268
	c-14.09,28.124-28.009,62.916-23.766,95.24l0.19,1.196c0.405-1.354,0.78-2.699,1.106-4.042c1.408-5.795,2.821-11.591,4.239-17.386
	c0.502,11.652,2.212,23.104,2.977,34.716c0.765,11.613,0.551,23.603-2.67,34.936c1.496-5.257,0.565-12.957,0.214-18.263
	c-0.404-6.158-1.179-12.436-2.704-18.285c-0.39,0.651-0.633,1.849-0.843,2.801l-4.073,18.427c0.365-1.661-0.619-4.414-0.745-6.068
	c-0.258-3.264-0.721-6.368-1.306-9.586c-1.778-9.784-3.722-19.666-3.859-29.822C1626.233,394.767,1627.899,383.924,1630.901,373.536
	z"/>
</svg>
